<?xml version="1.0" encoding="UTF-8" standalone="no"?>
<!-- Generator: Adobe Illustrator 16.0.4, SVG Export Plug-In . SVG Version: 6.00 Build 0)  -->

<svg
   xmlns:dc="http://purl.org/dc/elements/1.1/"
   xmlns:cc="http://creativecommons.org/ns#"
   xmlns:rdf="http://www.w3.org/1999/02/22-rdf-syntax-ns#"
   xmlns:svg="http://www.w3.org/2000/svg"
   xmlns="http://www.w3.org/2000/svg"
   xmlns:sodipodi="http://sodipodi.sourceforge.net/DTD/sodipodi-0.dtd"
   xmlns:inkscape="http://www.inkscape.org/namespaces/inkscape"
   version="1.1"
   id="Capa_1"
   x="0px"
   y="0px"
   width="525.93799"
   height="525.93799"
   viewBox="0 0 525.93799 525.93799"
   enable-background="new 0 0 612 792"
   xml:space="preserve"
   inkscape:version="0.48.4 r9939"
   sodipodi:docname="Flaticon_9794.svg"><metadata
     id="metadata9"><rdf:RDF><cc:Work
         rdf:about=""><dc:format>image/svg+xml</dc:format><dc:type
           rdf:resource="http://purl.org/dc/dcmitype/StillImage" /></cc:Work></rdf:RDF></metadata><defs
     id="defs7" /><sodipodi:namedview
     pagecolor="#ffffff"
     bordercolor="#666666"
     borderopacity="1"
     objecttolerance="10"
     gridtolerance="10"
     guidetolerance="10"
     inkscape:pageopacity="0"
     inkscape:pageshadow="2"
     inkscape:window-width="1309"
     inkscape:window-height="744"
     id="namedview5"
     showgrid="false"
     fit-margin-top="0"
     fit-margin-left="0"
     fit-margin-right="0"
     fit-margin-bottom="0"
     inkscape:zoom="0.2979798"
     inkscape:cx="262.969"
     inkscape:cy="262.969"
     inkscape:window-x="57"
     inkscape:window-y="306"
     inkscape:window-maximized="1"
     inkscape:current-layer="Capa_1" /><path
     d="M 508.606,17.332 C 497.051,5.777 482.907,0 466.172,0 H 59.766 C 43.032,0 28.887,5.777 17.332,17.332 5.777,28.887 0,43.031 0,59.766 v 406.406 c 0,16.732 5.777,30.879 17.332,42.434 11.555,11.557 25.699,17.332 42.434,17.332 h 406.406 c 16.734,0 30.879,-5.775 42.434,-17.332 11.557,-11.555 17.332,-25.699 17.332,-42.434 V 59.766 c 0,-16.734 -5.776,-30.879 -17.332,-42.434 z M 225.018,82.776 c 10.559,-10.558 23.209,-15.838 37.951,-15.838 14.742,0 27.393,5.279 37.951,15.838 10.558,10.559 15.838,23.209 15.838,37.951 0,14.742 -5.279,27.393 -15.838,37.951 -10.561,10.558 -23.209,15.838 -37.951,15.838 -14.742,0 -27.393,-5.279 -37.951,-15.838 -10.558,-10.559 -15.838,-23.209 -15.838,-37.951 0,-14.742 5.279,-27.393 15.838,-37.951 z M 346.64,466.172 H 179.297 v -35.859 h 47.812 V 227.11 H 191.25 v -23.906 h 95.625 11.953 v 227.109 h 47.812 v 35.859 z"
     id="path3"
     inkscape:connector-curvature="0" /></svg>