<?xml version="1.0" encoding="utf-8"?>
<!-- Generator: Adobe Illustrator 16.0.4, SVG Export Plug-In . SVG Version: 6.00 Build 0)  -->
<!DOCTYPE svg PUBLIC "-//W3C//DTD SVG 1.1//EN" "http://www.w3.org/Graphics/SVG/1.1/DTD/svg11.dtd">
<svg version="1.1" id="Capa_1" xmlns="http://www.w3.org/2000/svg" xmlns:xlink="http://www.w3.org/1999/xlink" x="0px" y="0px"
	 width="19.307px" height="11.664px" viewBox="0 0 19.307 11.664" enable-background="new 0 0 19.307 11.664" xml:space="preserve">
<path d="M19.184,10.609v-0.457h-0.45l-0.12-6.665l0.391-0.271l0.062-0.512c0,0-0.121-0.09-0.422-0.061l0.061-1.232L14.282,0
	L9.923,0.66L9.229,0.508L6.376,1.053l-0.03,1.261l0.053,0.037c-0.4,0.09-0.807,0.203-0.807,0.203l0.029,0.361l0.572,0.391
	l-0.393,6.727H5.353v0.418l-0.16,0.002v-0.301H4.805L4.721,3.908C3.94,3.697,3.398,3.879,3.398,3.879l-0.34,6.273H2.786v0.336
	L2.607,10.49v-0.338H2.224l-0.12-5.884c0,0,0.271-0.09,0.271-0.209c0-0.119,0.119-0.33,0.119-0.33l0.242-0.062V3.428
	c0,0-0.315-0.111-0.72-0.143L1.955,3.256L1.771,3.279c-0.021,0-0.037-0.002-0.058-0.002C1.173,3.307,0.51,3.428,0.51,3.428
	L0.482,3.666l0.449,0.393l-0.294,6.093H0.199v0.369L0,10.525v1.139h19.307v-1.051L19.184,10.609z M3.5,4.178l0.008-0.182H3.51
	L3.5,4.178z M8.796,9.953H8.299v0.457l-0.32,0.004v-0.381H7.602L7.486,3.307l0.724-0.48l0.025-0.361l0.489-0.061
	C8.867,2.626,9.08,2.827,9.08,2.827L8.796,9.953z M12.037,9.953h-0.271v0.41l-0.561,0.01v-0.42h-0.538l-0.145-7.098l0.661-0.451
	v-0.31l0.979-0.123c0.057,0.195,0.192,0.373,0.192,0.373L12.037,9.953z M14.751,10.053h-0.316v-0.1h-0.427l-0.206-7.488
	c0,0,0.271-0.15,0.451-0.332c0.044-0.043,0.071-0.1,0.089-0.158l0.133,0.043c0.011,0.143,0.072,0.299,0.072,0.299
	s0.212,0.09,0.153,0.27c-0.062,0.18,0.389,0.363,0.389,0.363L14.751,10.053z M16.918,10.152v-0.101h-0.521
	c0.007-1.084-0.06-7.025,0.077-7.107c0.04-0.025,0.201-0.07,0.243-0.125c0.024,0.285,0.633,0.578,0.633,0.578l-0.21,6.734
	l0.531,0.021H16.918z"/>
</svg>
