<?xml version="1.0" encoding="UTF-8" standalone="no"?>
<svg
   xmlns:dc="http://purl.org/dc/elements/1.1/"
   xmlns:cc="http://creativecommons.org/ns#"
   xmlns:rdf="http://www.w3.org/1999/02/22-rdf-syntax-ns#"
   xmlns:svg="http://www.w3.org/2000/svg"
   xmlns="http://www.w3.org/2000/svg"
   xmlns:sodipodi="http://sodipodi.sourceforge.net/DTD/sodipodi-0.dtd"
   xmlns:inkscape="http://www.inkscape.org/namespaces/inkscape"
   version="1.1"
   width="50.466599"
   height="38"
   viewBox="0 0 50.466599 38"
   enable-background="new 0 0 76.00 76.00"
   xml:space="preserve"
   id="svg2"
   inkscape:version="0.48.4 r9939"
   sodipodi:docname="Flaticon_10500.svg"><metadata
     id="metadata10"><rdf:RDF><cc:Work
         rdf:about=""><dc:format>image/svg+xml</dc:format><dc:type
           rdf:resource="http://purl.org/dc/dcmitype/StillImage" /></cc:Work></rdf:RDF></metadata><defs
     id="defs8" /><sodipodi:namedview
     pagecolor="#ffffff"
     bordercolor="#666666"
     borderopacity="1"
     objecttolerance="10"
     gridtolerance="10"
     guidetolerance="10"
     inkscape:pageopacity="0"
     inkscape:pageshadow="2"
     inkscape:window-width="640"
     inkscape:window-height="480"
     id="namedview6"
     showgrid="false"
     fit-margin-top="0"
     fit-margin-left="0"
     fit-margin-right="0"
     fit-margin-bottom="0"
     inkscape:zoom="3.1052632"
     inkscape:cx="25"
     inkscape:cy="17"
     inkscape:window-x="57"
     inkscape:window-y="306"
     inkscape:window-maximized="0"
     inkscape:current-layer="svg2" /><path
     d="m 25,0 c 2.9455,0 5.3333,2.3878 5.3333,5.3333 0,2.9455 -2.3878,5.3334 -5.3333,5.3334 -2.9455,0 -5.3333,-2.3879 -5.3333,-5.3334 C 19.6667,2.3878 22.0545,0 25,0 z m -5.3334,17.3834 c -0.7111,0.3555 -1.8833,3.4499 -1.2404,3.8667 L 14.964,20.6132 c 2.3553,-0.8532 2.8271,-2.2788 3.0183,-4.8797 l -0.1814,-1.6172 c 0.7735,-0.6438 1.9176,-2.0662 2.9324,-2.0661 l 8.5333,0 c 1.0371,-10e-5 1.9483,0.4411 2.7333,1.1091 l 0.5,1.8408 c 0,2.1735 1.6557,2.827 3.3861,3.8797 l -2.4194,-0.0506 c -0.629,-0.0224 -1.2115,0.1191 -1.7478,0.3767 -0.4543,-0.7807 -1.0159,-1.6377 -1.3855,-1.8225 l 0.1201,2.7001 c -2.2578,2.0734 -3.3868,5.9844 -3.3868,5.9844 l -0.3902,1.9374 -1.1431,0.0447 c -0.7672,0 -1.5204,-0.06 -2.2551,-0.1755 -0.5849,-1.5537 -1.8599,-4.3583 -3.8249,-5.6666 l 0.2133,-4.8245 z M 11.7333,9.95 c 2.9456,0 5.3334,2.3878 5.3334,5.3333 0,2.9455 -2.3878,5.3334 -5.3334,5.3334 C 8.7878,20.6167 6.4,18.2288 6.4,15.2833 6.4,12.3378 8.7878,9.95 11.7333,9.95 z M 6.4,27.3333 c -0.7111,0.3556 -2.1333,3.2 -2.1333,3.2 0,0 -0.7111,1.0667 -1.0667,5.3333 L 0,34.8 1.0667,29.4667 c 0,0 2.1333,-7.4667 6.3999,-7.4666 l 8.5333,0 C 20.2667,22 22.4,29.4667 22.4,29.4667 L 23.4666,34.8 20.2667,35.8667 C 19.9111,31.6 19.2001,30.5333 19.2001,30.5333 c 0,0 -1.4223,-2.8444 -2.1334,-3.2 l 0.4309,9.6871 C 15.8762,37.6529 14.112,38 12.2667,38 10.0173,38 7.8884,37.4843 5.9918,36.5646 L 6.4,27.3333 z M 38.7333,7.931 c 2.9455,0.1049 5.3334,2.5777 5.3334,5.5232 0,2.9455 -2.3879,5.2483 -5.3334,5.1435 C 35.7878,18.4928 33.4,16.02 33.4,13.0745 33.4,10.129 35.7878,7.8262 38.7333,7.931 z M 33.4,25.1245 c -0.7111,0.3302 -2.1333,3.124 -2.1333,3.124 0,0 -0.7111,1.0413 -1.0667,5.2953 L 27,32.3632 28.0667,27.0679 c 0,0 2.1333,-7.3907 6.3999,-7.2387 l 8.5333,0.3038 c 4.2668,0.1518 6.4001,7.6944 6.4001,7.6944 l 1.0666,5.3714 -3.1999,0.9527 c -0.3556,-4.2793 -1.0666,-5.3713 -1.0666,-5.3713 0,0 -1.4223,-2.8951 -2.1334,-3.276 l 0.4309,9.7025 C 42.8762,35.7814 41.112,36.0657 39.2667,36 37.0173,35.9199 34.8884,35.3284 32.9918,34.3412 L 33.4,25.1245 z"
     id="path4"
     inkscape:connector-curvature="0"
     style="fill:#000000;fill-opacity:1;stroke-width:0.2;stroke-linejoin:round" /></svg>