<?xml version="1.0" encoding="UTF-8" standalone="no"?>
<!-- Generator: Adobe Illustrator 17.0.0, SVG Export Plug-In . SVG Version: 6.00 Build 0)  -->

<svg
   xmlns:dc="http://purl.org/dc/elements/1.1/"
   xmlns:cc="http://creativecommons.org/ns#"
   xmlns:rdf="http://www.w3.org/1999/02/22-rdf-syntax-ns#"
   xmlns:svg="http://www.w3.org/2000/svg"
   xmlns="http://www.w3.org/2000/svg"
   xmlns:sodipodi="http://sodipodi.sourceforge.net/DTD/sodipodi-0.dtd"
   xmlns:inkscape="http://www.inkscape.org/namespaces/inkscape"
   version="1.1"
   id="Capa_1"
   x="0px"
   y="0px"
   width="51.412743"
   height="49.773697"
   viewBox="0 0 51.412743 49.773697"
   xml:space="preserve"
   inkscape:version="0.48.4 r9939"
   sodipodi:docname="Flaticon_20176.svg"><metadata
     id="metadata9"><rdf:RDF><cc:Work
         rdf:about=""><dc:format>image/svg+xml</dc:format><dc:type
           rdf:resource="http://purl.org/dc/dcmitype/StillImage" /></cc:Work></rdf:RDF></metadata><defs
     id="defs7" /><sodipodi:namedview
     pagecolor="#ffffff"
     bordercolor="#666666"
     borderopacity="1"
     objecttolerance="10"
     gridtolerance="10"
     guidetolerance="10"
     inkscape:pageopacity="0"
     inkscape:pageshadow="2"
     inkscape:window-width="640"
     inkscape:window-height="480"
     id="namedview5"
     showgrid="false"
     fit-margin-top="0"
     fit-margin-left="0"
     fit-margin-right="0"
     fit-margin-bottom="0"
     inkscape:zoom="3.6875"
     inkscape:cx="25.706601"
     inkscape:cy="24.887"
     inkscape:window-x="57"
     inkscape:window-y="306"
     inkscape:window-maximized="0"
     inkscape:current-layer="Capa_1" /><path
     d="m 50.768601,24.284695 c 0.932,-1.025 0.842,-2.596 -0.201,-3.508 l -22.977,-20.105 c -1.043,-0.912 -2.715,-0.893 -3.736,0.043 l -23.05499963,21.134 c -1.021,0.936 -1.071,2.505 -0.111,3.503 l 0.57800003,0.602 c 0.959,0.998 2.509,1.117 3.46,0.265 l 1.723,-1.543 v 22.59 c 0,1.386 1.123,2.508 2.508,2.508 h 8.9869996 c 1.385,0 2.508,-1.122 2.508,-2.508 v -15.804 h 11.463 v 15.804 c -0.02,1.385 0.971,2.507 2.356,2.507 h 9.524 c 1.385,0 2.508,-1.122 2.508,-2.508 v -22.271 c 0,0 0.476,0.417 1.063,0.933 0.586,0.515 1.817,0.102 2.749,-0.924 l 0.653,-0.718 z"
     id="path3"
     inkscape:connector-curvature="0" /></svg>