<?xml version="1.0" encoding="UTF-8" standalone="no"?>
<!-- Created with Inkscape (http://www.inkscape.org/) -->

<svg
   xmlns:dc="http://purl.org/dc/elements/1.1/"
   xmlns:cc="http://creativecommons.org/ns#"
   xmlns:rdf="http://www.w3.org/1999/02/22-rdf-syntax-ns#"
   xmlns:svg="http://www.w3.org/2000/svg"
   xmlns="http://www.w3.org/2000/svg"
   xmlns:sodipodi="http://sodipodi.sourceforge.net/DTD/sodipodi-0.dtd"
   xmlns:inkscape="http://www.inkscape.org/namespaces/inkscape"
   width="425.99124"
   height="105.72935"
   id="svg2"
   version="1.1"
   inkscape:version="0.48.4 r9939"
   sodipodi:docname="flowerLogo.svg"
   inkscape:export-filename="/home/gorgel/Dropbox/Simon/hemsidor/stromshammar/design/flowerLogo.png"
   inkscape:export-xdpi="56.516106"
   inkscape:export-ydpi="56.516106">
  <defs
     id="defs4" />
  <sodipodi:namedview
     id="base"
     pagecolor="#ffffff"
     bordercolor="#666666"
     borderopacity="1.0"
     inkscape:pageopacity="0.0"
     inkscape:pageshadow="2"
     inkscape:zoom="1.4"
     inkscape:cx="381.79423"
     inkscape:cy="57.3391"
     inkscape:document-units="px"
     inkscape:current-layer="layer1"
     showgrid="false"
     inkscape:snap-global="true"
     inkscape:window-width="1309"
     inkscape:window-height="744"
     inkscape:window-x="57"
     inkscape:window-y="306"
     inkscape:window-maximized="1"
     showguides="true"
     inkscape:guide-bbox="true"
     fit-margin-top="0"
     fit-margin-left="0"
     fit-margin-right="0"
     fit-margin-bottom="0" />
  <metadata
     id="metadata7">
    <rdf:RDF>
      <cc:Work
         rdf:about="">
        <dc:format>image/svg+xml</dc:format>
        <dc:type
           rdf:resource="http://purl.org/dc/dcmitype/StillImage" />
        <dc:title />
      </cc:Work>
    </rdf:RDF>
  </metadata>
  <g
     inkscape:label="Layer 1"
     inkscape:groupmode="layer"
     id="layer1"
     transform="translate(-3.5276181,-957.48704)">
    <text
       xml:space="preserve"
       style="font-size:99.3002243px;font-style:normal;font-variant:normal;font-weight:normal;font-stretch:normal;line-height:125%;letter-spacing:0px;word-spacing:0px;fill:#000000;fill-opacity:1;stroke:none;font-family:Tangerine;-inkscape-font-specification:Tangerine"
       x="70.657143"
       y="1062.4851"
       id="text2985"
       sodipodi:linespacing="125%"
       inkscape:export-filename="/home/gorgel/Dropbox/Simon/hemsidor/stromshammar/design/dandelion.png"
       inkscape:export-xdpi="63.397736"
       inkscape:export-ydpi="63.397736"><tspan
         sodipodi:role="line"
         id="tspan2987"
         x="70.657143"
         y="1062.4851">Strömshammar</tspan></text>
    <path
       sodipodi:type="arc"
       style="fill:#00ffff;fill-opacity:1;stroke:#000000;stroke-opacity:0"
       id="path4845"
       sodipodi:cx="620"
       sodipodi:cy="476.64789"
       sodipodi:rx="19.285715"
       sodipodi:ry="19.285715"
       d="m 639.28572,476.64789 c 0,10.6512 -8.63451,19.28571 -19.28572,19.28571 -10.65121,0 -19.28572,-8.63451 -19.28572,-19.28571 0,-10.65121 8.63451,-19.28572 19.28572,-19.28572 10.65121,0 19.28572,8.63451 19.28572,19.28572 z"
       transform="matrix(0.66315912,0,0,0.66315912,-393.56555,666.34833)" />
    <path
       transform="matrix(0.66315912,0,0,0.66315912,-373.67076,654.50622)"
       sodipodi:type="arc"
       style="fill:#00ffff;fill-opacity:1;stroke:#000000;stroke-opacity:0"
       id="path4845-9"
       sodipodi:cx="620"
       sodipodi:cy="476.64789"
       sodipodi:rx="19.285715"
       sodipodi:ry="19.285715"
       d="m 639.28572,476.64789 c 0,10.6512 -8.63451,19.28571 -19.28572,19.28571 -10.65121,0 -19.28572,-8.63451 -19.28572,-19.28571 0,-10.65121 8.63451,-19.28572 19.28572,-19.28572 10.65121,0 19.28572,8.63451 19.28572,19.28572 z" />
    <path
       transform="matrix(0.66315912,0,0,0.66315912,-355.19704,665.87464)"
       sodipodi:type="arc"
       style="fill:#00ffff;fill-opacity:1;stroke:#000000;stroke-opacity:0"
       id="path4845-4"
       sodipodi:cx="620"
       sodipodi:cy="476.64789"
       sodipodi:rx="19.285715"
       sodipodi:ry="19.285715"
       d="m 639.28572,476.64789 c 0,10.6512 -8.63451,19.28571 -19.28572,19.28571 -10.65121,0 -19.28572,-8.63451 -19.28572,-19.28571 0,-10.65121 8.63451,-19.28572 19.28572,-19.28572 10.65121,0 19.28572,8.63451 19.28572,19.28572 z" />
    <path
       transform="matrix(0.66315912,0,0,0.66315912,-355.67073,685.29573)"
       sodipodi:type="arc"
       style="fill:#00ffff;fill-opacity:1;stroke:#000000;stroke-opacity:0"
       id="path4845-2"
       sodipodi:cx="620"
       sodipodi:cy="476.64789"
       sodipodi:rx="19.285715"
       sodipodi:ry="19.285715"
       d="m 639.28572,476.64789 c 0,10.6512 -8.63451,19.28571 -19.28572,19.28571 -10.65121,0 -19.28572,-8.63451 -19.28572,-19.28571 0,-10.65121 8.63451,-19.28572 19.28572,-19.28572 10.65121,0 19.28572,8.63451 19.28572,19.28572 z" />
    <path
       transform="matrix(0.66315912,0,0,0.66315912,-374.14445,696.1905)"
       sodipodi:type="arc"
       style="fill:#00ffff;fill-opacity:1;stroke:#000000;stroke-opacity:0"
       id="path4845-98"
       sodipodi:cx="620"
       sodipodi:cy="476.64789"
       sodipodi:rx="19.285715"
       sodipodi:ry="19.285715"
       d="m 639.28572,476.64789 c 0,10.6512 -8.63451,19.28571 -19.28572,19.28571 -10.65121,0 -19.28572,-8.63451 -19.28572,-19.28571 0,-10.65121 8.63451,-19.28572 19.28572,-19.28572 10.65121,0 19.28572,8.63451 19.28572,19.28572 z" />
    <path
       transform="matrix(0.66315912,0,0,0.66315912,-394.51292,687.66417)"
       sodipodi:type="arc"
       style="fill:#00ffff;fill-opacity:1;stroke:#000000;stroke-opacity:0"
       id="path4845-5"
       sodipodi:cx="620"
       sodipodi:cy="476.64789"
       sodipodi:rx="19.285715"
       sodipodi:ry="19.285715"
       d="m 639.28572,476.64789 c 0,10.6512 -8.63451,19.28571 -19.28572,19.28571 -10.65121,0 -19.28572,-8.63451 -19.28572,-19.28571 0,-10.65121 8.63451,-19.28572 19.28572,-19.28572 10.65121,0 19.28572,8.63451 19.28572,19.28572 z" />
    <path
       sodipodi:type="arc"
       style="fill:#ffff00;fill-opacity:1;stroke:#ffff00;stroke-opacity:1"
       id="path4843"
       sodipodi:cx="647.5"
       sodipodi:cy="494.86218"
       sodipodi:rx="23.214285"
       sodipodi:ry="23.214285"
       d="m 670.71428,494.86218 c 0,12.8209 -10.39338,23.21429 -23.21428,23.21429 -12.8209,0 -23.21428,-10.39339 -23.21428,-23.21429 0,-12.82089 10.39338,-23.21428 23.21428,-23.21428 12.8209,0 23.21428,10.39339 23.21428,23.21428 z"
       transform="matrix(0.51334909,0,0,0.51334909,-295.85301,738.35207)" />
    <path
       style="fill:#00ff00;fill-opacity:1;stroke:none"
       d="m 33.000149,1027.8978 9.04486,34.5833 2.602154,-35.4507 c -3.546307,3.0528 -8.100817,2.7 -11.647014,0.8674 z"
       id="path4895"
       inkscape:connector-curvature="0"
       sodipodi:nodetypes="cccc" />
    <path
       style="fill:#00ff00;fill-opacity:1;stroke:none"
       d="m 45.399358,1057.8958 c 1.241453,-10.6409 11.394753,-17.0255 24.341309,-18.0896 0.203927,10.3863 -5.246197,20.9576 -19.020795,23.4102 -2.837614,-0.7093 -4.611113,-2.4829 -5.320514,-5.3206 z"
       id="path4897-6"
       inkscape:connector-curvature="0"
       sodipodi:nodetypes="cccc" />
    <path
       style="fill:#00ff00;fill-opacity:1;stroke:none"
       d="m 37.48787,1057.7628 c -1.241453,-10.6409 -11.394746,-17.0255 -24.341298,-18.0896 -0.203934,10.3862 5.246197,20.9576 19.020794,23.4102 2.837604,-0.7095 4.611103,-2.4829 5.320504,-5.3206 z"
       id="path4897-6-4"
       inkscape:connector-curvature="0"
       sodipodi:nodetypes="cccc" />
  </g>
</svg>
