<?xml version="1.0" encoding="UTF-8" standalone="no"?>
<!-- Created with Inkscape (http://www.inkscape.org/) -->

<svg
   xmlns:dc="http://purl.org/dc/elements/1.1/"
   xmlns:cc="http://creativecommons.org/ns#"
   xmlns:rdf="http://www.w3.org/1999/02/22-rdf-syntax-ns#"
   xmlns:svg="http://www.w3.org/2000/svg"
   xmlns="http://www.w3.org/2000/svg"
   xmlns:sodipodi="http://sodipodi.sourceforge.net/DTD/sodipodi-0.dtd"
   xmlns:inkscape="http://www.inkscape.org/namespaces/inkscape"
   width="488.18268"
   height="102.88071"
   id="svg2"
   version="1.1"
   inkscape:version="0.48.4 r9939"
   sodipodi:docname="flowerLogo.svg"
   inkscape:export-filename="/home/gorgel/Dropbox/Simon/hemsidor/stromshammar/design/flowerLogo.png"
   inkscape:export-xdpi="56.516106"
   inkscape:export-ydpi="56.516106">
  <defs
     id="defs4" />
  <sodipodi:namedview
     id="base"
     pagecolor="#ffffff"
     bordercolor="#666666"
     borderopacity="1.0"
     inkscape:pageopacity="0.0"
     inkscape:pageshadow="2"
     inkscape:zoom="1.4"
     inkscape:cx="379.80608"
     inkscape:cy="57.522194"
     inkscape:document-units="px"
     inkscape:current-layer="layer1"
     showgrid="false"
     inkscape:snap-global="true"
     inkscape:window-width="1309"
     inkscape:window-height="744"
     inkscape:window-x="57"
     inkscape:window-y="24"
     inkscape:window-maximized="1"
     showguides="true"
     inkscape:guide-bbox="true"
     fit-margin-top="0"
     fit-margin-left="0"
     fit-margin-right="0"
     fit-margin-bottom="0" />
  <metadata
     id="metadata7">
    <rdf:RDF>
      <cc:Work
         rdf:about="">
        <dc:format>image/svg+xml</dc:format>
        <dc:type
           rdf:resource="http://purl.org/dc/dcmitype/StillImage" />
        <dc:title />
      </cc:Work>
    </rdf:RDF>
  </metadata>
  <g
     inkscape:label="Layer 1"
     inkscape:groupmode="layer"
     id="layer1"
     transform="translate(-5.3140352,-960.33568)">
    <text
       xml:space="preserve"
       style="font-size:117.25184631px;font-style:normal;font-variant:normal;font-weight:normal;font-stretch:normal;line-height:125%;letter-spacing:0px;word-spacing:0px;fill:#000000;fill-opacity:1;stroke:none;font-family:Tangerine;-inkscape-font-specification:Tangerine"
       x="69.75956"
       y="1062.4851"
       id="text2985"
       sodipodi:linespacing="125%"
       inkscape:export-filename="/home/gorgel/Dropbox/Simon/hemsidor/stromshammar/design/dandelion.png"
       inkscape:export-xdpi="63.397736"
       inkscape:export-ydpi="63.397736"><tspan
         sodipodi:role="line"
         id="tspan2987"
         x="69.75956"
         y="1062.4851">Strömshammar</tspan></text>
    <path
       sodipodi:type="arc"
       style="fill:#00ffff;fill-opacity:1;stroke:#000000;stroke-opacity:0"
       id="path4845"
       sodipodi:cx="620"
       sodipodi:cy="476.64789"
       sodipodi:rx="19.285715"
       sodipodi:ry="19.285715"
       d="m 639.28572,476.64789 c 0,10.6512 -8.63451,19.28571 -19.28572,19.28571 -10.65121,0 -19.28572,-8.63451 -19.28572,-19.28571 0,-10.65121 8.63451,-19.28572 19.28572,-19.28572 10.65121,0 19.28572,8.63451 19.28572,19.28572 z"
       transform="matrix(0.6452399,0,0,0.6452399,-381.0464,677.0721)" />
    <path
       transform="matrix(0.6452399,0,0,0.6452399,-361.68919,665.54998)"
       sodipodi:type="arc"
       style="fill:#00ffff;fill-opacity:1;stroke:#000000;stroke-opacity:0"
       id="path4845-9"
       sodipodi:cx="620"
       sodipodi:cy="476.64789"
       sodipodi:rx="19.285715"
       sodipodi:ry="19.285715"
       d="m 639.28572,476.64789 c 0,10.6512 -8.63451,19.28571 -19.28572,19.28571 -10.65121,0 -19.28572,-8.63451 -19.28572,-19.28571 0,-10.65121 8.63451,-19.28572 19.28572,-19.28572 10.65121,0 19.28572,8.63451 19.28572,19.28572 z" />
    <path
       transform="matrix(0.6452399,0,0,0.6452399,-343.71465,676.61121)"
       sodipodi:type="arc"
       style="fill:#00ffff;fill-opacity:1;stroke:#000000;stroke-opacity:0"
       id="path4845-4"
       sodipodi:cx="620"
       sodipodi:cy="476.64789"
       sodipodi:rx="19.285715"
       sodipodi:ry="19.285715"
       d="m 639.28572,476.64789 c 0,10.6512 -8.63451,19.28571 -19.28572,19.28571 -10.65121,0 -19.28572,-8.63451 -19.28572,-19.28571 0,-10.65121 8.63451,-19.28572 19.28572,-19.28572 10.65121,0 19.28572,8.63451 19.28572,19.28572 z" />
    <path
       transform="matrix(0.6452399,0,0,0.6452399,-344.17554,695.50752)"
       sodipodi:type="arc"
       style="fill:#00ffff;fill-opacity:1;stroke:#000000;stroke-opacity:0"
       id="path4845-2"
       sodipodi:cx="620"
       sodipodi:cy="476.64789"
       sodipodi:rx="19.285715"
       sodipodi:ry="19.285715"
       d="m 639.28572,476.64789 c 0,10.6512 -8.63451,19.28571 -19.28572,19.28571 -10.65121,0 -19.28572,-8.63451 -19.28572,-19.28571 0,-10.65121 8.63451,-19.28572 19.28572,-19.28572 10.65121,0 19.28572,8.63451 19.28572,19.28572 z" />
    <path
       transform="matrix(0.6452399,0,0,0.6452399,-362.15008,706.10791)"
       sodipodi:type="arc"
       style="fill:#00ffff;fill-opacity:1;stroke:#000000;stroke-opacity:0"
       id="path4845-98"
       sodipodi:cx="620"
       sodipodi:cy="476.64789"
       sodipodi:rx="19.285715"
       sodipodi:ry="19.285715"
       d="m 639.28572,476.64789 c 0,10.6512 -8.63451,19.28571 -19.28572,19.28571 -10.65121,0 -19.28572,-8.63451 -19.28572,-19.28571 0,-10.65121 8.63451,-19.28572 19.28572,-19.28572 10.65121,0 19.28572,8.63451 19.28572,19.28572 z" />
    <path
       transform="matrix(0.6452399,0,0,0.6452399,-381.96817,697.81197)"
       sodipodi:type="arc"
       style="fill:#00ffff;fill-opacity:1;stroke:#000000;stroke-opacity:0"
       id="path4845-5"
       sodipodi:cx="620"
       sodipodi:cy="476.64789"
       sodipodi:rx="19.285715"
       sodipodi:ry="19.285715"
       d="m 639.28572,476.64789 c 0,10.6512 -8.63451,19.28571 -19.28572,19.28571 -10.65121,0 -19.28572,-8.63451 -19.28572,-19.28571 0,-10.65121 8.63451,-19.28572 19.28572,-19.28572 10.65121,0 19.28572,8.63451 19.28572,19.28572 z" />
    <path
       sodipodi:type="arc"
       style="fill:#ffff00;fill-opacity:1;stroke:#ffff00;stroke-opacity:1"
       id="path4843"
       sodipodi:cx="647.5"
       sodipodi:cy="494.86218"
       sodipodi:rx="23.214285"
       sodipodi:ry="23.214285"
       d="m 670.71428,494.86218 c 0,12.8209 -10.39338,23.21429 -23.21428,23.21429 -12.8209,0 -23.21428,-10.39339 -23.21428,-23.21429 0,-12.82089 10.39338,-23.21428 23.21428,-23.21428 12.8209,0 23.21428,10.39339 23.21428,23.21428 z"
       transform="matrix(0.49947788,0,0,0.49947788,-285.97415,747.13023)" />
    <path
       style="fill:#00ff00;fill-opacity:1;stroke:none"
       d="m 33.993063,1028.8521 8.800459,33.6489 2.531841,-34.4928 c -3.450482,2.9703 -7.881925,2.627 -11.3323,0.8439 z"
       id="path4895"
       inkscape:connector-curvature="0"
       sodipodi:nodetypes="cccc" />
    <path
       style="fill:#00ff00;fill-opacity:1;stroke:none"
       d="m 46.057233,1058.0396 c 1.207908,-10.3534 11.086856,-16.5655 23.683583,-17.6008 0.198416,10.1056 -5.10444,20.3913 -18.506834,22.7776 -2.760939,-0.6901 -4.486517,-2.4158 -5.176749,-5.1768 z"
       id="path4897-6"
       inkscape:connector-curvature="0"
       sodipodi:nodetypes="cccc" />
    <path
       style="fill:#00ff00;fill-opacity:1;stroke:none"
       d="m 38.359521,1057.9102 c -1.207907,-10.3534 -11.086848,-16.5655 -23.683571,-17.6008 -0.198424,10.1055 5.104439,20.3913 18.506833,22.7776 2.760929,-0.6903 4.486506,-2.4158 5.176738,-5.1768 z"
       id="path4897-6-4"
       inkscape:connector-curvature="0"
       sodipodi:nodetypes="cccc" />
  </g>
</svg>
