<?xml version="1.0" encoding="UTF-8" standalone="no"?>
<!-- Created with Inkscape (http://www.inkscape.org/) -->

<svg
   xmlns:dc="http://purl.org/dc/elements/1.1/"
   xmlns:cc="http://creativecommons.org/ns#"
   xmlns:rdf="http://www.w3.org/1999/02/22-rdf-syntax-ns#"
   xmlns:svg="http://www.w3.org/2000/svg"
   xmlns="http://www.w3.org/2000/svg"
   xmlns:sodipodi="http://sodipodi.sourceforge.net/DTD/sodipodi-0.dtd"
   xmlns:inkscape="http://www.inkscape.org/namespaces/inkscape"
   width="744.09448819"
   height="1052.3622047"
   id="svg2"
   version="1.1"
   inkscape:version="0.48.4 r9939"
   sodipodi:docname="flowerLogo.svg"
   inkscape:export-filename="/home/gorgel/Dropbox/Simon/hemsidor/stromshammar/design/flowerLogo.png"
   inkscape:export-xdpi="56.516106"
   inkscape:export-ydpi="56.516106">
  <defs
     id="defs4" />
  <sodipodi:namedview
     id="base"
     pagecolor="#ffffff"
     bordercolor="#666666"
     borderopacity="1.0"
     inkscape:pageopacity="0.0"
     inkscape:pageshadow="2"
     inkscape:zoom="0.7"
     inkscape:cx="406.74775"
     inkscape:cy="761.53103"
     inkscape:document-units="px"
     inkscape:current-layer="layer1"
     showgrid="false"
     inkscape:snap-global="true"
     inkscape:window-width="1623"
     inkscape:window-height="1026"
     inkscape:window-x="1423"
     inkscape:window-y="24"
     inkscape:window-maximized="1"
     showguides="true"
     inkscape:guide-bbox="true" />
  <metadata
     id="metadata7">
    <rdf:RDF>
      <cc:Work
         rdf:about="">
        <dc:format>image/svg+xml</dc:format>
        <dc:type
           rdf:resource="http://purl.org/dc/dcmitype/StillImage" />
        <dc:title></dc:title>
      </cc:Work>
    </rdf:RDF>
  </metadata>
  <g
     inkscape:label="Layer 1"
     inkscape:groupmode="layer"
     id="layer1">
    <text
       xml:space="preserve"
       style="font-size:149.56336975px;font-style:normal;font-variant:normal;font-weight:normal;font-stretch:normal;line-height:125%;letter-spacing:0px;word-spacing:0px;fill:#000000;fill-opacity:1;stroke:none;font-family:Tangerine;-inkscape-font-specification:Tangerine"
       x="163.92355"
       y="509.92255"
       id="text2985"
       sodipodi:linespacing="125%"
       inkscape:export-filename="/home/gorgel/Dropbox/Simon/hemsidor/stromshammar/design/dandelion.png"
       inkscape:export-xdpi="63.397736"
       inkscape:export-ydpi="63.397736"><tspan
         sodipodi:role="line"
         id="tspan2987"
         x="163.92355"
         y="509.92255">Strömshammar</tspan></text>
    <path
       sodipodi:type="arc"
       style="fill:#00ffff;fill-opacity:1;stroke:#000000;stroke-opacity:0"
       id="path4845"
       sodipodi:cx="620"
       sodipodi:cy="476.64789"
       sodipodi:rx="19.285715"
       sodipodi:ry="19.285715"
       d="m 639.28572,476.64789 a 19.285715,19.285715 0 1 1 -38.57144,0 19.285715,19.285715 0 1 1 38.57144,0 z"
       transform="matrix(0.99883277,0,0,0.99883277,-535.2764,-86.728363)" />
    <path
       transform="matrix(0.99883277,0,0,0.99883277,-505.31141,-104.56465)"
       sodipodi:type="arc"
       style="fill:#00ffff;fill-opacity:1;stroke:#000000;stroke-opacity:0"
       id="path4845-9"
       sodipodi:cx="620"
       sodipodi:cy="476.64789"
       sodipodi:rx="19.285715"
       sodipodi:ry="19.285715"
       d="m 639.28572,476.64789 a 19.285715,19.285715 0 1 1 -38.57144,0 19.285715,19.285715 0 1 1 38.57144,0 z" />
    <path
       transform="matrix(0.99883277,0,0,0.99883277,-477.48678,-87.441803)"
       sodipodi:type="arc"
       style="fill:#00ffff;fill-opacity:1;stroke:#000000;stroke-opacity:0"
       id="path4845-4"
       sodipodi:cx="620"
       sodipodi:cy="476.64789"
       sodipodi:rx="19.285715"
       sodipodi:ry="19.285715"
       d="m 639.28572,476.64789 a 19.285715,19.285715 0 1 1 -38.57144,0 19.285715,19.285715 0 1 1 38.57144,0 z" />
    <path
       transform="matrix(0.99883277,0,0,0.99883277,-478.20023,-58.190272)"
       sodipodi:type="arc"
       style="fill:#00ffff;fill-opacity:1;stroke:#000000;stroke-opacity:0"
       id="path4845-2"
       sodipodi:cx="620"
       sodipodi:cy="476.64789"
       sodipodi:rx="19.285715"
       sodipodi:ry="19.285715"
       d="m 639.28572,476.64789 a 19.285715,19.285715 0 1 1 -38.57144,0 19.285715,19.285715 0 1 1 38.57144,0 z" />
    <path
       transform="matrix(0.99883277,0,0,0.99883277,-506.02486,-41.780879)"
       sodipodi:type="arc"
       style="fill:#00ffff;fill-opacity:1;stroke:#000000;stroke-opacity:0"
       id="path4845-98"
       sodipodi:cx="620"
       sodipodi:cy="476.64789"
       sodipodi:rx="19.285715"
       sodipodi:ry="19.285715"
       d="m 639.28572,476.64789 a 19.285715,19.285715 0 1 1 -38.57144,0 19.285715,19.285715 0 1 1 38.57144,0 z" />
    <path
       transform="matrix(0.99883277,0,0,0.99883277,-536.7033,-54.623014)"
       sodipodi:type="arc"
       style="fill:#00ffff;fill-opacity:1;stroke:#000000;stroke-opacity:0"
       id="path4845-5"
       sodipodi:cx="620"
       sodipodi:cy="476.64789"
       sodipodi:rx="19.285715"
       sodipodi:ry="19.285715"
       d="m 639.28572,476.64789 a 19.285715,19.285715 0 1 1 -38.57144,0 19.285715,19.285715 0 1 1 38.57144,0 z" />
    <path
       sodipodi:type="arc"
       style="fill:#ffff00;fill-opacity:1;stroke:#ffff00;stroke-opacity:1"
       id="path4843"
       sodipodi:cx="647.5"
       sodipodi:cy="494.86218"
       sodipodi:rx="23.214285"
       sodipodi:ry="23.214285"
       d="m 670.71428,494.86218 a 23.214285,23.214285 0 1 1 -46.42856,0 23.214285,23.214285 0 1 1 46.42856,0 z"
       transform="matrix(0.77319283,0,0,0.77319283,-388.10436,21.721777)" />
    <path
       style="fill:#00ff00;fill-opacity:1;stroke:none"
       d="m 107.20558,457.82781 13.62312,52.08838 3.9193,-53.39482 c -5.34135,4.59806 -12.20124,4.06656 -17.54242,1.30644 z"
       id="path4895"
       inkscape:connector-curvature="0"
       sodipodi:nodetypes="cccc" />
    <path
       style="fill:#00ff00;fill-opacity:1;stroke:none"
       d="m 125.88094,503.01017 c 1.86984,-16.0272 17.16247,-25.64351 36.66222,-27.24623 0.30716,15.64352 -7.90168,31.56578 -28.64861,35.25982 -4.27393,-1.06848 -6.94513,-3.73967 -8.01361,-8.01359 z"
       id="path4897-6"
       inkscape:connector-curvature="0"
       sodipodi:nodetypes="cccc" />
    <path
       style="fill:#00ff00;fill-opacity:1;stroke:none"
       d="m 113.96486,502.80984 c -1.86984,-16.0272 -17.162462,-25.64351 -36.662215,-27.24624 -0.30716,15.64353 7.901681,31.56579 28.648615,35.25983 4.27392,-1.06848 6.94512,-3.73968 8.0136,-8.01359 z"
       id="path4897-6-4"
       inkscape:connector-curvature="0"
       sodipodi:nodetypes="cccc" />
  </g>
</svg>
